<svg width="11" height="8" viewBox="0 0 11 8" fill="none" xmlns="http://www.w3.org/2000/svg">
<path d="M1.17702 1.01681C1.10343 1.04406 0.99169 1.10402 0.934457 1.14763C0.874497 1.19396 0.716423 1.34386 0.580152 1.48285C0.419353 1.6491 0.310336 1.79082 0.261279 1.89167C0.220398 1.97615 0.179516 2.11515 0.168615 2.19691C0.157713 2.29775 0.165889 2.40404 0.198594 2.52396C0.223123 2.62208 0.277631 2.75562 0.321238 2.82376C0.364845 2.89189 1.38688 3.92755 2.58878 5.12946C4.51565 7.05088 4.79637 7.32069 4.92719 7.37793C5.05801 7.43516 5.11797 7.44334 5.39051 7.44334C5.66305 7.44334 5.72301 7.43516 5.85383 7.37793C5.98465 7.32069 6.2681 7.04815 8.20587 5.11583C9.95558 3.36612 10.4216 2.88917 10.4843 2.76925C10.5279 2.68749 10.577 2.54577 10.5961 2.45583C10.6124 2.36589 10.6206 2.24324 10.6097 2.18328C10.5988 2.12333 10.5634 2.00613 10.5334 1.92437C10.4898 1.80173 10.4189 1.71451 10.1627 1.45287C9.93923 1.22394 9.80296 1.10947 9.69667 1.05769C9.56312 0.992278 9.51679 0.984102 9.27423 0.984102C9.05075 0.986827 8.97716 0.997729 8.86542 1.04679C8.75367 1.09857 8.42117 1.41472 7.06119 2.77743L5.39051 4.44538C2.24266 1.3057 2.03552 1.10675 1.90198 1.05224C1.79841 1.00863 1.68395 0.986827 1.53405 0.978651C1.37325 0.970475 1.27786 0.981376 1.17702 1.01681Z" fill="#505050"/>
</svg>
