<svg width="8" height="6" viewBox="0 0 8 6" fill="none" xmlns="http://www.w3.org/2000/svg">
<path d="M0.775425 0.978621C0.719095 0.9996 0.633555 1.04576 0.589742 1.07932C0.543843 1.11499 0.422836 1.23038 0.31852 1.33737C0.195427 1.46535 0.111974 1.57444 0.0744199 1.65207C0.043125 1.7171 0.0118301 1.8241 0.00348476 1.88704C-0.00486055 1.96466 0.0013984 2.04648 0.0264343 2.13879C0.0452112 2.21432 0.0869378 2.31712 0.120319 2.36957C0.1537 2.42202 0.936073 3.21925 1.85614 4.14445C3.33117 5.62351 3.54607 5.83121 3.64621 5.87527C3.74635 5.91933 3.79225 5.92562 4.00089 5.92562C4.20952 5.92562 4.25542 5.91933 4.35556 5.87527C4.4557 5.83121 4.67268 5.62142 6.15606 4.13396C7.49548 2.78707 7.85224 2.41992 7.90023 2.32761C7.93361 2.26467 7.97116 2.15558 7.98577 2.08635C7.99829 2.01711 8.00455 1.9227 7.9962 1.87655C7.98785 1.83039 7.96073 1.74018 7.93778 1.67724C7.9044 1.58283 7.85016 1.5157 7.65404 1.31429C7.48296 1.13807 7.37865 1.04995 7.29728 1.01009C7.19505 0.959739 7.15958 0.953445 6.9739 0.953445C6.80282 0.955543 6.74649 0.963935 6.66095 1.0017C6.57541 1.04156 6.32088 1.28492 5.2798 2.33391L4.00089 3.61786C1.59118 1.201 1.43262 1.04785 1.33039 1.00589C1.25111 0.972327 1.16348 0.955543 1.04873 0.949249C0.925641 0.942955 0.85262 0.951347 0.775425 0.978621Z" fill="white"/>
</svg>
