<svg width="10" height="11" viewBox="0 0 10 11" fill="none" xmlns="http://www.w3.org/2000/svg">
<path d="M4.47772 2.6958H2C1.44772 2.6958 1 3.14352 1 3.6958V8.65124C1 9.20352 1.44771 9.65124 2 9.65124H6.95544C7.50772 9.65124 7.95544 9.20353 7.95544 8.65124V6.17352" stroke="#6F7473" stroke-opacity="0.75" stroke-linecap="round"/>
<path d="M3.64645 5.86303C3.45118 6.05829 3.45118 6.37487 3.64645 6.57013C3.84171 6.7654 4.15829 6.7654 4.35355 6.57013L3.64645 5.86303ZM9.71658 1C9.71658 0.723858 9.49272 0.5 9.21658 0.5L4.71658 0.5C4.44044 0.5 4.21658 0.723858 4.21658 1C4.21658 1.27614 4.44044 1.5 4.71658 1.5L8.71658 1.5V5.5C8.71658 5.77614 8.94044 6 9.21658 6C9.49272 6 9.71658 5.77614 9.71658 5.5V1ZM4.35355 6.57013L9.57013 1.35355L8.86303 0.646447L3.64645 5.86303L4.35355 6.57013Z" fill="#6F7473" fill-opacity="0.75"/>
</svg>
