<svg width="25" height="25" viewBox="0 0 25 25" fill="none" xmlns="http://www.w3.org/2000/svg">
<path d="M11.6403 22.215C17.6376 22.215 22.4993 17.3907 22.4993 11.4395C22.4993 5.48841 17.6376 0.664062 11.6403 0.664062C5.643 0.664062 0.78125 5.48841 0.78125 11.4395C0.78125 17.3907 5.643 22.215 11.6403 22.215Z" fill="#50AF95"/>
<path fill-rule="evenodd" clip-rule="evenodd" d="M12.7813 11.955C12.7181 11.9585 12.3986 11.9794 11.6824 11.9794C11.1137 11.9794 10.7099 11.9619 10.5695 11.955C8.37168 11.8574 6.72859 11.4777 6.72859 11.0248C6.72859 10.5684 8.36817 10.1921 10.5695 10.0946V11.5787C10.7134 11.5892 11.1242 11.6136 11.693 11.6136C12.3741 11.6136 12.7181 11.5857 12.7778 11.5787V10.0946C14.9721 10.1921 16.6082 10.5719 16.6082 11.0248C16.6082 11.4777 14.9756 11.8574 12.7813 11.955ZM12.7813 9.94131V8.61396H15.8428V6.58984H7.508V8.61396H10.5695V9.94131C8.08028 10.0563 6.20898 10.544 6.20898 11.1293C6.20898 11.7146 8.08028 12.2023 10.5695 12.3173V16.5711H12.7813V12.3173C15.2635 12.2023 17.1313 11.7146 17.1313 11.1293C17.1313 10.544 15.267 10.0563 12.7813 9.94131Z" fill="white"/>
<path d="M23.8264 12.1095C23.8264 18.4481 18.7142 23.5822 12.4132 23.5822C6.11221 23.5822 1 18.4481 1 12.1095C1 5.7709 6.11221 0.636719 12.4132 0.636719C18.7142 0.636719 23.8264 5.7709 23.8264 12.1095Z" fill="white" stroke="#E0E0E0"/>
<path d="M23.9709 12.0548C23.9709 18.3934 18.8587 23.5276 12.5577 23.5276C6.25674 23.5276 1.14453 18.3934 1.14453 12.0548C1.14453 5.71621 6.25674 0.582031 12.5577 0.582031C18.8587 0.582031 23.9709 5.71621 23.9709 12.0548Z" fill="black" stroke="#E0E0E0"/>
<path d="M7.43728 15.5257C7.52954 15.433 7.65641 15.3789 7.79095 15.3789H19.9926C20.2156 15.3789 20.327 15.6493 20.1694 15.8078L17.7591 18.2301C17.6668 18.3229 17.54 18.377 17.4054 18.377H5.20378C4.98081 18.377 4.86933 18.1065 5.02694 17.9481L7.43728 15.5257Z" fill="url(#paint0_linear_1209_532)"/>
<path d="M7.43728 6.4808C7.53339 6.38807 7.66025 6.33398 7.79095 6.33398H19.9926C20.2156 6.33398 20.327 6.60443 20.1694 6.76283L17.7591 9.18522C17.6668 9.27795 17.54 9.33203 17.4054 9.33203H5.20378C4.98081 9.33203 4.86933 9.06159 5.02694 8.90319L7.43728 6.4808Z" fill="url(#paint1_linear_1209_532)"/>
<path d="M17.7591 10.973C17.6668 10.8803 17.54 10.8262 17.4054 10.8262H5.20378C4.98081 10.8262 4.86933 11.0966 5.02694 11.255L7.43728 13.6774C7.52954 13.7701 7.65641 13.8242 7.79095 13.8242H19.9926C20.2156 13.8242 20.327 13.5538 20.1694 13.3954L17.7591 10.973Z" fill="url(#paint2_linear_1209_532)"/>
<defs>
<linearGradient id="paint0_linear_1209_532" x1="18.827" y1="4.88746" x2="10.3161" y2="21.1081" gradientUnits="userSpaceOnUse">
<stop stop-color="#00FFA3"/>
<stop offset="1" stop-color="#DC1FFF"/>
</linearGradient>
<linearGradient id="paint1_linear_1209_532" x1="15.1346" y1="2.94953" x2="6.6237" y2="19.1702" gradientUnits="userSpaceOnUse">
<stop stop-color="#00FFA3"/>
<stop offset="1" stop-color="#DC1FFF"/>
</linearGradient>
<linearGradient id="paint2_linear_1209_532" x1="16.969" y1="3.91103" x2="8.45814" y2="20.1317" gradientUnits="userSpaceOnUse">
<stop stop-color="#00FFA3"/>
<stop offset="1" stop-color="#DC1FFF"/>
</linearGradient>
</defs>
</svg>
