<svg width="26" height="108" viewBox="0 0 26 108" fill="none" xmlns="http://www.w3.org/2000/svg">
<path d="M16.4725 -7.80158e-07L16.4906 -7.7858e-07L16.4906 3.10933L16.4725 3.10933C15.9913 3.15781 15.6544 3.36086 15.4619 3.71847C15.2754 4.08213 15.1822 4.63672 15.1822 5.38223C15.1822 6.15198 15.2514 6.6793 15.3897 6.96417C15.5341 7.24904 15.7537 7.39147 16.0484 7.39147C16.3071 7.39147 16.4996 7.28844 16.6259 7.08236C16.7583 6.88235 16.8846 6.48534 17.0049 5.89136L17.3929 3.90938C17.6155 2.70324 17.9373 1.79407 18.3584 1.18191C18.7855 0.56974 19.375 0.263656 20.1269 0.263656C21.0413 0.263656 21.7631 0.70005 22.2925 1.57285C22.8219 2.4517 23.0865 3.65482 23.0865 5.18221C23.0865 6.63687 22.8189 7.8309 22.2835 8.7643C21.7481 9.70377 20.9571 10.2038 19.9104 10.2644L19.8923 10.2644L19.8923 7.30056L19.9104 7.30056C20.7225 7.23994 21.1285 6.55807 21.1285 5.25494C21.1285 4.55792 21.0533 4.07001 20.9029 3.7912C20.7586 3.51239 20.539 3.37299 20.2442 3.37299C19.9735 3.37299 19.772 3.48209 19.6397 3.70028C19.5134 3.91848 19.387 4.33669 19.2607 4.95493L18.9088 7.10054C18.6862 8.30669 18.3614 9.17343 17.9343 9.70074C17.5132 10.2341 16.9327 10.5008 16.1928 10.5008C15.2544 10.5008 14.5265 10.0523 14.0092 9.15524C13.4919 8.25821 13.2332 6.99448 13.2332 5.36404C13.2332 3.81241 13.4919 2.54867 14.0092 1.57284C14.5325 0.597014 15.3536 0.0727301 16.4725 -7.80158e-07Z" fill="white"/>
<path d="M22.9061 18.9196L22.9061 21.9744L13.4407 21.9744L13.4407 19.0378L15.2183 19.0378C14.6408 18.8136 14.1716 18.4014 13.8107 17.8014C13.4558 17.2074 13.2783 16.5073 13.2783 15.7012C13.2783 14.5496 13.6062 13.6374 14.2618 12.9646C14.9235 12.2918 15.8078 11.9555 16.9147 11.9555L22.9061 11.9555L22.9061 15.0284L17.4651 15.0284C16.6891 15.0284 16.1507 15.1678 15.8499 15.4466C15.5492 15.7254 15.3988 16.1831 15.3988 16.8195C15.3988 18.2196 16.2981 18.9196 18.0967 18.9196L22.9061 18.9196Z" fill="white"/>
<path d="M23.0685 30.4023C23.0685 31.7782 22.6384 32.8874 21.7782 33.7299C20.924 34.5784 19.7961 35.0027 18.3945 35.0027L17.9523 35.0027C16.5507 35.0027 15.4198 34.5784 14.5596 33.7299C13.7054 32.8874 13.2783 31.7782 13.2783 30.4023C13.2783 28.8386 13.8077 27.7415 14.8664 27.1112L9.74121 27.1112L9.74121 24.0564L22.9061 24.0564L22.9061 26.993L21.2729 26.993C22.47 27.5748 23.0685 28.7113 23.0685 30.4023ZM17.9523 31.8752L18.3945 31.8752C20.0969 31.8752 20.945 31.063 20.939 29.4386C20.939 28.6689 20.7195 28.0688 20.2803 27.6385C19.8472 27.2081 19.2186 26.993 18.3945 26.993L17.9523 26.993C16.25 26.993 15.3988 27.8052 15.3988 29.4295C15.3988 31.06 16.25 31.8752 17.9523 31.8752Z" fill="white"/>
<path d="M18.1508 47.0127L17.3748 47.0127L17.3748 39.1303C16.5748 39.1909 16.0033 39.4091 15.6604 39.7849C15.3236 40.1667 15.1551 40.7425 15.1551 41.5123C15.1551 42.9003 15.5943 43.6973 16.4725 43.9034L16.4725 46.8945C15.4379 46.6824 14.6438 46.0823 14.0904 45.0944C13.537 44.1125 13.2603 42.9275 13.2603 41.5395C13.2603 39.9031 13.6663 38.5727 14.4784 37.5483C15.2905 36.5301 16.4545 36.0209 17.9704 36.0209L18.3764 36.0209C19.8322 36.0209 20.9811 36.5392 21.8233 37.5756C22.6655 38.612 23.0865 39.9243 23.0865 41.5123C23.0865 43.1851 22.6444 44.5186 21.7601 45.5126C20.8819 46.5127 19.6788 47.0127 18.1508 47.0127ZM18.9629 43.9761L18.981 43.9761C20.4247 43.8912 21.1466 43.0972 21.1466 41.5941C21.1466 40.788 20.9781 40.194 20.6413 39.8121C20.3104 39.4364 19.751 39.2091 18.9629 39.1303L18.9629 43.9761Z" fill="white"/>
<path d="M22.9963 54.7678C22.9963 55.1012 22.9662 55.4224 22.9061 55.7315L20.4427 55.7315C20.5029 55.4224 20.533 55.1133 20.533 54.8042C20.533 53.7374 20.3164 52.9344 19.8833 52.3949C19.4562 51.8555 18.6952 51.5858 17.6004 51.5858L13.4407 51.5858L13.4407 48.531L22.9061 48.531L22.9061 51.4676L20.7586 51.4676C21.4383 51.7161 21.9797 52.1313 22.3827 52.7131C22.7918 53.3011 22.9963 53.986 22.9963 54.7678Z" fill="white"/>
<path d="M20.7225 56.5225L22.9061 56.5225L22.9061 58.2408L25.3965 58.2408L25.3965 61.3138L22.9061 61.3138L22.9061 64.0049L20.7225 64.0049L20.7225 61.3138L15.8409 61.3138C15.7025 61.3138 15.6364 61.3865 15.6424 61.532L15.6424 64.0049L13.4407 64.0049L13.4407 61.1956C13.4407 60.2743 13.6783 59.55 14.1536 59.0227C14.6288 58.5014 15.3266 58.2408 16.2469 58.2408L20.7225 58.2408L20.7225 56.5225Z" fill="white"/>
<path d="M18.1508 75.8694L17.3748 75.8694L17.3748 67.987C16.5748 68.0476 16.0033 68.2658 15.6604 68.6416C15.3236 69.0235 15.1551 69.5993 15.1551 70.369C15.1551 71.757 15.5943 72.554 16.4725 72.7601L16.4725 75.7513C15.4379 75.5391 14.6438 74.9391 14.0904 73.9511C13.537 72.9692 13.2603 71.7843 13.2603 70.3963C13.2603 68.7598 13.6663 67.4294 14.4784 66.4051C15.2905 65.3868 16.4545 64.8777 17.9704 64.8777L18.3764 64.8777C19.8322 64.8777 20.9811 65.3959 21.8233 66.4324C22.6655 67.4688 23.0865 68.781 23.0865 70.369C23.0865 72.0419 22.6444 73.3753 21.7601 74.3693C20.8819 75.3694 19.6788 75.8694 18.1508 75.8694ZM18.9629 72.8329L18.981 72.8329C20.4247 72.748 21.1466 71.954 21.1466 70.4509C21.1466 69.6447 20.9781 69.0507 20.6413 68.6689C20.3104 68.2931 19.751 68.0658 18.9629 67.987L18.9629 72.8329Z" fill="white"/>
<path d="M23.1046 82.47C23.1046 85.749 21.8744 87.3855 19.4141 87.3794L13.4407 87.3794L13.4407 84.4428L14.9205 84.4428C14.3671 84.158 13.955 83.6731 13.6844 82.9882C13.4137 82.3033 13.2783 81.5578 13.2783 80.7516C13.2783 79.6243 13.537 78.7091 14.0543 78.006C14.5716 77.309 15.2544 76.9604 16.1026 76.9604L16.2289 76.9604C17.0771 76.9604 17.7568 77.3514 18.2681 78.1333C18.7855 78.9151 19.0441 80.0364 19.0441 81.4972L19.0441 84.3883L19.6667 84.3883C20.5811 84.3883 21.0383 83.7185 21.0383 82.379C21.0383 81.7063 20.942 81.1911 20.7495 80.8335C20.557 80.4819 20.2412 80.2637 19.8021 80.1789L19.8021 77.2696C20.921 77.409 21.7511 77.9423 22.2925 78.8697C22.8339 79.8031 23.1046 81.0032 23.1046 82.47ZM15.1551 82.0063C15.1551 82.776 15.3296 83.3731 15.6785 83.7973C16.0334 84.2277 16.5748 84.4428 17.3027 84.4428L17.5102 84.4428L17.5102 81.7426C17.5102 81.185 17.4079 80.7638 17.2034 80.4789C16.9989 80.194 16.7252 80.0516 16.3823 80.0516L16.2469 80.0516C15.5191 80.0516 15.1551 80.7032 15.1551 82.0063Z" fill="white"/>
<path d="M23.0685 102.162C23.0685 103.278 22.7376 104.163 22.0759 104.817C21.4203 105.478 20.539 105.808 19.4321 105.808L13.4407 105.808L13.4407 102.772L18.8727 102.772C19.6487 102.772 20.1871 102.635 20.4879 102.362C20.7886 102.09 20.939 101.656 20.939 101.062C20.939 99.7107 20.0397 99.0349 18.2411 99.0349L13.4407 99.0349L13.4407 96.1255L18.8727 96.1255C19.6487 96.1255 20.1871 95.9892 20.4879 95.7164C20.7886 95.4437 20.939 95.0103 20.939 94.4163C20.939 93.0647 20.0397 92.3889 18.2411 92.3889L13.4407 92.3889L13.4407 89.3523L22.9061 89.3523L22.9061 92.2707L21.2548 92.2707C21.7962 92.5071 22.2323 92.9101 22.5632 93.4799C22.9001 94.0557 23.0685 94.7345 23.0685 95.5164C23.0685 97.1165 22.4218 98.1833 21.1285 98.7167C21.706 98.9409 22.1722 99.3652 22.5271 99.9895C22.888 100.62 23.0685 101.344 23.0685 102.162Z" fill="white"/>
<mask id="path-2-outside-1_77_13710" maskUnits="userSpaceOnUse" x="0" y="50.6538" width="12" height="57" fill="black">
<rect fill="white" y="50.6538" width="12" height="57"/>
<path d="M5.82615 61.4616C5.14379 61.4616 4.50894 61.3428 3.9216 61.1053C3.33426 60.8721 2.82249 60.5417 2.3863 60.1141C1.95443 59.6866 1.61542 59.1705 1.36925 58.5659C1.12308 57.9656 1 57.2983 1 56.5642C1 55.83 1.12309 55.1606 1.36925 54.556C1.61542 53.9514 1.95443 53.4331 2.3863 53.0012C2.82249 52.5737 3.33426 52.2412 3.9216 52.0036C4.50894 51.7704 5.14379 51.6538 5.82615 51.6538C6.5085 51.6538 7.14335 51.7704 7.73069 52.0036C8.31804 52.2412 8.82764 52.5737 9.25951 53.0012C9.69138 53.4331 10.0304 53.9514 10.2766 54.556C10.5227 55.1606 10.6458 55.83 10.6458 56.5642C10.6458 57.2983 10.5206 57.9656 10.2701 58.5659C10.0239 59.1705 9.6849 59.6866 9.25303 60.1141C8.82116 60.5417 8.31156 60.8721 7.72422 61.1053C7.13687 61.3428 6.50418 61.4616 5.82615 61.4616ZM5.82615 59.2202C6.29257 59.2202 6.71148 59.1597 7.08289 59.0388C7.45861 58.9179 7.77604 58.743 8.03516 58.5141C8.29428 58.2895 8.49294 58.0131 8.63114 57.6849C8.76934 57.3566 8.83844 56.9831 8.83844 56.5642C8.83844 56.1409 8.76934 55.7631 8.63114 55.4305C8.49294 55.1023 8.29428 54.8237 8.03516 54.5948C7.77604 54.3703 7.45861 54.1975 7.08289 54.0766C6.71148 53.9557 6.29257 53.8952 5.82615 53.8952C5.35541 53.8952 4.93218 53.9557 4.55645 54.0766C4.18504 54.1975 3.86978 54.3703 3.61066 54.5948C3.35153 54.8237 3.15287 55.1023 3.01467 55.4305C2.8808 55.763 2.81386 56.1409 2.81386 56.5642C2.81386 56.9831 2.8808 57.3566 3.01467 57.6849C3.15287 58.0131 3.35153 58.2895 3.61065 58.5141C3.86978 58.743 4.18504 58.9179 4.55645 59.0388C4.93218 59.1597 5.35541 59.2202 5.82615 59.2202ZM10.5422 70.9902L1.10365 70.9902L1.10365 69.85C1.10365 69.6816 1.12956 69.5391 1.18139 69.4225C1.23753 69.3102 1.33254 69.1979 1.46642 69.0856L7.09584 64.6352C6.92741 64.6525 6.7633 64.6633 6.60351 64.6676C6.44804 64.6762 6.3012 64.6806 6.163 64.6806H1.10365L1.10365 62.7501H10.5422L10.5422 63.9032C10.5422 63.9982 10.5378 64.0781 10.5292 64.1429C10.5206 64.2077 10.5033 64.266 10.4774 64.3178C10.4558 64.3696 10.4234 64.4193 10.3802 64.4668C10.337 64.5143 10.2787 64.5683 10.2053 64.6287L4.53702 69.118C4.7184 69.0964 4.89331 69.0813 5.06174 69.0727C5.23449 69.064 5.39644 69.0597 5.54759 69.0597H10.5422V70.9902Z"/>
<path d="M2.75555 79.6822C2.75555 79.9715 2.79226 80.2069 2.86568 80.3883C2.9391 80.574 3.03411 80.7186 3.15071 80.8223C3.26732 80.9259 3.39904 80.9972 3.54587 81.0361C3.69271 81.0749 3.8417 81.0944 3.99286 81.0944C4.16561 81.0944 4.32108 81.0706 4.45928 81.0231C4.59748 80.9799 4.71408 80.9022 4.80909 80.7899C4.9041 80.6819 4.97752 80.5373 5.02935 80.3559C5.08117 80.1745 5.10708 79.9456 5.10708 79.6692L5.10708 78.1404H2.75555L2.75555 79.6822ZM8.90322 78.1404H6.57112V79.2805C6.57112 79.5224 6.5884 79.7405 6.62295 79.9348C6.6575 80.1291 6.71796 80.2933 6.80433 80.4271C6.89071 80.5653 7.00947 80.669 7.16062 80.7381C7.31178 80.8115 7.5018 80.8482 7.73069 80.8482C7.95526 80.8482 8.14097 80.8201 8.2878 80.764C8.43896 80.7078 8.55988 80.6215 8.65057 80.5049C8.74127 80.3883 8.80605 80.2393 8.84492 80.0579C8.88378 79.8808 8.90322 79.6692 8.90322 79.423V78.1404ZM10.5422 79.423C10.5422 80.0752 10.4817 80.6301 10.3608 81.0879C10.2399 81.5457 10.0693 81.9192 9.84901 82.2086C9.62876 82.4979 9.361 82.7074 9.04574 82.837C8.73047 82.9708 8.3785 83.0378 7.98981 83.0378C7.7782 83.0378 7.57306 83.0076 7.3744 82.9471C7.18006 82.8866 6.99651 82.7916 6.82377 82.6621C6.65534 82.5325 6.49986 82.3662 6.35735 82.1632C6.21483 81.9603 6.09175 81.7163 5.9881 81.4312C5.83694 82.0531 5.59294 82.5131 5.25608 82.8111C4.91922 83.109 4.48303 83.258 3.94751 83.258C3.54587 83.258 3.17231 83.1803 2.82681 83.0248C2.48131 82.8694 2.17901 82.6405 1.91988 82.3382C1.66508 82.0402 1.46426 81.6709 1.31743 81.2304C1.17491 80.7899 1.10365 80.2868 1.10365 79.721L1.10365 75.9508H10.5422V79.423ZM2.83329 88.569C2.83329 88.8627 2.88079 89.124 2.97581 89.3529C3.07513 89.5861 3.21549 89.7826 3.39688 89.9424C3.57826 90.1022 3.79852 90.2231 4.05764 90.3051C4.32108 90.3915 4.61907 90.4347 4.95161 90.4347H10.5422V92.6243H4.95161C4.3729 92.6243 3.8417 92.5293 3.35801 92.3393C2.87432 92.1535 2.45756 91.8858 2.10775 91.536C1.75793 91.1862 1.48585 90.7608 1.29151 90.2598C1.09717 89.7588 1 89.1952 1 88.569C1 87.9385 1.09717 87.3727 1.29151 86.8718C1.48585 86.3708 1.75793 85.9454 2.10775 85.5956C2.45756 85.2458 2.87432 84.978 3.35801 84.7923C3.8417 84.6066 4.3729 84.5138 4.95161 84.5138H10.5422V86.7034H4.95809C4.62555 86.7034 4.32756 86.7444 4.06412 86.8264C3.805 86.9128 3.58258 87.0359 3.39688 87.1957C3.21549 87.3555 3.07513 87.5498 2.97581 87.7787C2.88079 88.0119 2.83329 88.2754 2.83329 88.569ZM6.1047 97.4054C6.1047 97.7034 6.14141 97.956 6.21483 98.1633C6.29256 98.3749 6.39837 98.5477 6.53225 98.6816C6.66613 98.8154 6.82161 98.9126 6.99867 98.9731C7.18006 99.0335 7.3744 99.0638 7.5817 99.0638C7.99629 99.0638 8.32019 98.9277 8.5534 98.6557C8.78661 98.3879 8.90322 97.9711 8.90322 97.4054V96.5244H6.1047V97.4054ZM1.10365 102.057L1.10365 100.074C1.10365 99.7073 1.24185 99.4438 1.51824 99.284L4.25846 97.7163C4.37506 97.6429 4.45928 97.5609 4.5111 97.4702C4.56725 97.3795 4.59532 97.2499 4.59532 97.0815V96.5244H1.10365L1.10365 94.3348H10.5422V97.4054C10.5422 98.0877 10.4709 98.6686 10.3284 99.148C10.1902 99.6317 9.99585 100.025 9.74536 100.327C9.49488 100.634 9.19905 100.856 8.85787 100.994C8.51669 101.132 8.14529 101.202 7.74365 101.202C7.43702 101.202 7.14767 101.16 6.87559 101.078C6.60351 100.996 6.35087 100.875 6.11766 100.716C5.88877 100.556 5.68363 100.357 5.50224 100.12C5.32086 99.8865 5.17186 99.6166 5.05526 99.3099C4.98184 99.4524 4.88899 99.5863 4.7767 99.7116C4.66873 99.8368 4.53917 99.9491 4.38802 100.048L1.10365 102.057ZM4.52406 106.756C3.99718 106.756 3.5178 106.689 3.08593 106.555C2.65406 106.426 2.28265 106.227 1.97171 105.959C1.66508 105.696 1.42539 105.363 1.25264 104.962C1.08421 104.56 1 104.087 1 103.543C1 103.297 1.01296 103.053 1.03887 102.811C1.06478 102.573 1.10797 102.325 1.16843 102.066L2.4446 102.183C2.55689 102.196 2.64758 102.241 2.71668 102.319C2.78578 102.396 2.82033 102.507 2.82033 102.649C2.82033 102.722 2.80738 102.813 2.78146 102.921C2.75987 103.029 2.74907 103.159 2.74907 103.31C2.74907 103.521 2.77714 103.705 2.83329 103.86C2.89375 104.02 2.99092 104.152 3.1248 104.256C3.263 104.359 3.44222 104.437 3.66248 104.489C3.88273 104.541 4.15481 104.567 4.47871 104.567H10.5422V106.756H4.52406Z"/>
</mask>
<path d="M5.82615 61.4616C5.14379 61.4616 4.50894 61.3428 3.9216 61.1053C3.33426 60.8721 2.82249 60.5417 2.3863 60.1141C1.95443 59.6866 1.61542 59.1705 1.36925 58.5659C1.12308 57.9656 1 57.2983 1 56.5642C1 55.83 1.12309 55.1606 1.36925 54.556C1.61542 53.9514 1.95443 53.4331 2.3863 53.0012C2.82249 52.5737 3.33426 52.2412 3.9216 52.0036C4.50894 51.7704 5.14379 51.6538 5.82615 51.6538C6.5085 51.6538 7.14335 51.7704 7.73069 52.0036C8.31804 52.2412 8.82764 52.5737 9.25951 53.0012C9.69138 53.4331 10.0304 53.9514 10.2766 54.556C10.5227 55.1606 10.6458 55.83 10.6458 56.5642C10.6458 57.2983 10.5206 57.9656 10.2701 58.5659C10.0239 59.1705 9.6849 59.6866 9.25303 60.1141C8.82116 60.5417 8.31156 60.8721 7.72422 61.1053C7.13687 61.3428 6.50418 61.4616 5.82615 61.4616ZM5.82615 59.2202C6.29257 59.2202 6.71148 59.1597 7.08289 59.0388C7.45861 58.9179 7.77604 58.743 8.03516 58.5141C8.29428 58.2895 8.49294 58.0131 8.63114 57.6849C8.76934 57.3566 8.83844 56.9831 8.83844 56.5642C8.83844 56.1409 8.76934 55.7631 8.63114 55.4305C8.49294 55.1023 8.29428 54.8237 8.03516 54.5948C7.77604 54.3703 7.45861 54.1975 7.08289 54.0766C6.71148 53.9557 6.29257 53.8952 5.82615 53.8952C5.35541 53.8952 4.93218 53.9557 4.55645 54.0766C4.18504 54.1975 3.86978 54.3703 3.61066 54.5948C3.35153 54.8237 3.15287 55.1023 3.01467 55.4305C2.8808 55.763 2.81386 56.1409 2.81386 56.5642C2.81386 56.9831 2.8808 57.3566 3.01467 57.6849C3.15287 58.0131 3.35153 58.2895 3.61065 58.5141C3.86978 58.743 4.18504 58.9179 4.55645 59.0388C4.93218 59.1597 5.35541 59.2202 5.82615 59.2202ZM10.5422 70.9902L1.10365 70.9902L1.10365 69.85C1.10365 69.6816 1.12956 69.5391 1.18139 69.4225C1.23753 69.3102 1.33254 69.1979 1.46642 69.0856L7.09584 64.6352C6.92741 64.6525 6.7633 64.6633 6.60351 64.6676C6.44804 64.6762 6.3012 64.6806 6.163 64.6806H1.10365L1.10365 62.7501H10.5422L10.5422 63.9032C10.5422 63.9982 10.5378 64.0781 10.5292 64.1429C10.5206 64.2077 10.5033 64.266 10.4774 64.3178C10.4558 64.3696 10.4234 64.4193 10.3802 64.4668C10.337 64.5143 10.2787 64.5683 10.2053 64.6287L4.53702 69.118C4.7184 69.0964 4.89331 69.0813 5.06174 69.0727C5.23449 69.064 5.39644 69.0597 5.54759 69.0597H10.5422V70.9902Z" stroke="white" mask="url(#path-2-outside-1_77_13710)"/>
<path d="M2.75555 79.6822C2.75555 79.9715 2.79226 80.2069 2.86568 80.3883C2.9391 80.574 3.03411 80.7186 3.15071 80.8223C3.26732 80.9259 3.39904 80.9972 3.54587 81.0361C3.69271 81.0749 3.8417 81.0944 3.99286 81.0944C4.16561 81.0944 4.32108 81.0706 4.45928 81.0231C4.59748 80.9799 4.71408 80.9022 4.80909 80.7899C4.9041 80.6819 4.97752 80.5373 5.02935 80.3559C5.08117 80.1745 5.10708 79.9456 5.10708 79.6692L5.10708 78.1404H2.75555L2.75555 79.6822ZM8.90322 78.1404H6.57112V79.2805C6.57112 79.5224 6.5884 79.7405 6.62295 79.9348C6.6575 80.1291 6.71796 80.2933 6.80433 80.4271C6.89071 80.5653 7.00947 80.669 7.16062 80.7381C7.31178 80.8115 7.5018 80.8482 7.73069 80.8482C7.95526 80.8482 8.14097 80.8201 8.2878 80.764C8.43896 80.7078 8.55988 80.6215 8.65057 80.5049C8.74127 80.3883 8.80605 80.2393 8.84492 80.0579C8.88378 79.8808 8.90322 79.6692 8.90322 79.423V78.1404ZM10.5422 79.423C10.5422 80.0752 10.4817 80.6301 10.3608 81.0879C10.2399 81.5457 10.0693 81.9192 9.84901 82.2086C9.62876 82.4979 9.361 82.7074 9.04574 82.837C8.73047 82.9708 8.3785 83.0378 7.98981 83.0378C7.7782 83.0378 7.57306 83.0076 7.3744 82.9471C7.18006 82.8866 6.99651 82.7916 6.82377 82.6621C6.65534 82.5325 6.49986 82.3662 6.35735 82.1632C6.21483 81.9603 6.09175 81.7163 5.9881 81.4312C5.83694 82.0531 5.59294 82.5131 5.25608 82.8111C4.91922 83.109 4.48303 83.258 3.94751 83.258C3.54587 83.258 3.17231 83.1803 2.82681 83.0248C2.48131 82.8694 2.17901 82.6405 1.91988 82.3382C1.66508 82.0402 1.46426 81.6709 1.31743 81.2304C1.17491 80.7899 1.10365 80.2868 1.10365 79.721L1.10365 75.9508H10.5422V79.423ZM2.83329 88.569C2.83329 88.8627 2.88079 89.124 2.97581 89.3529C3.07513 89.5861 3.21549 89.7826 3.39688 89.9424C3.57826 90.1022 3.79852 90.2231 4.05764 90.3051C4.32108 90.3915 4.61907 90.4347 4.95161 90.4347H10.5422V92.6243H4.95161C4.3729 92.6243 3.8417 92.5293 3.35801 92.3393C2.87432 92.1535 2.45756 91.8858 2.10775 91.536C1.75793 91.1862 1.48585 90.7608 1.29151 90.2598C1.09717 89.7588 1 89.1952 1 88.569C1 87.9385 1.09717 87.3727 1.29151 86.8718C1.48585 86.3708 1.75793 85.9454 2.10775 85.5956C2.45756 85.2458 2.87432 84.978 3.35801 84.7923C3.8417 84.6066 4.3729 84.5138 4.95161 84.5138H10.5422V86.7034H4.95809C4.62555 86.7034 4.32756 86.7444 4.06412 86.8264C3.805 86.9128 3.58258 87.0359 3.39688 87.1957C3.21549 87.3555 3.07513 87.5498 2.97581 87.7787C2.88079 88.0119 2.83329 88.2754 2.83329 88.569ZM6.1047 97.4054C6.1047 97.7034 6.14141 97.956 6.21483 98.1633C6.29256 98.3749 6.39837 98.5477 6.53225 98.6816C6.66613 98.8154 6.82161 98.9126 6.99867 98.9731C7.18006 99.0335 7.3744 99.0638 7.5817 99.0638C7.99629 99.0638 8.32019 98.9277 8.5534 98.6557C8.78661 98.3879 8.90322 97.9711 8.90322 97.4054V96.5244H6.1047V97.4054ZM1.10365 102.057L1.10365 100.074C1.10365 99.7073 1.24185 99.4438 1.51824 99.284L4.25846 97.7163C4.37506 97.6429 4.45928 97.5609 4.5111 97.4702C4.56725 97.3795 4.59532 97.2499 4.59532 97.0815V96.5244H1.10365L1.10365 94.3348H10.5422V97.4054C10.5422 98.0877 10.4709 98.6686 10.3284 99.148C10.1902 99.6317 9.99585 100.025 9.74536 100.327C9.49488 100.634 9.19905 100.856 8.85787 100.994C8.51669 101.132 8.14529 101.202 7.74365 101.202C7.43702 101.202 7.14767 101.16 6.87559 101.078C6.60351 100.996 6.35087 100.875 6.11766 100.716C5.88877 100.556 5.68363 100.357 5.50224 100.12C5.32086 99.8865 5.17186 99.6166 5.05526 99.3099C4.98184 99.4524 4.88899 99.5863 4.7767 99.7116C4.66873 99.8368 4.53917 99.9491 4.38802 100.048L1.10365 102.057ZM4.52406 106.756C3.99718 106.756 3.5178 106.689 3.08593 106.555C2.65406 106.426 2.28265 106.227 1.97171 105.959C1.66508 105.696 1.42539 105.363 1.25264 104.962C1.08421 104.56 1 104.087 1 103.543C1 103.297 1.01296 103.053 1.03887 102.811C1.06478 102.573 1.10797 102.325 1.16843 102.066L2.4446 102.183C2.55689 102.196 2.64758 102.241 2.71668 102.319C2.78578 102.396 2.82033 102.507 2.82033 102.649C2.82033 102.722 2.80738 102.813 2.78146 102.921C2.75987 103.029 2.74907 103.159 2.74907 103.31C2.74907 103.521 2.77714 103.705 2.83329 103.86C2.89375 104.02 2.99092 104.152 3.1248 104.256C3.263 104.359 3.44222 104.437 3.66248 104.489C3.88273 104.541 4.15481 104.567 4.47871 104.567H10.5422V106.756H4.52406Z" stroke="white" mask="url(#path-2-outside-1_77_13710)"/>
</svg>
