<svg width="827" height="126" viewBox="0 0 827 126" fill="none" xmlns="http://www.w3.org/2000/svg">
<path d="M24.4381 0.830422C25.8143 0.640611 28.092 0.379622 29.5393 0.26099C30.9866 0.166084 40.5009 0.0474527 69.2809 0V64.2984L55.3061 64.2509C47.6188 64.2035 41.2601 64.2272 41.1889 64.2984C41.1178 64.3696 42.3041 64.8441 43.8463 65.3424C45.3648 65.8643 48.1645 67.0744 50.0626 68.0234C51.9607 68.9725 54.4994 70.4673 55.7332 71.3451C56.967 72.2467 58.8413 73.8127 59.909 74.8566C60.9767 75.9006 62.4715 77.6089 63.2307 78.6528C64.0137 79.6968 65.0814 81.4051 65.6271 82.4491C66.1965 83.493 66.8608 84.9403 67.1456 85.6521C67.4303 86.3639 67.9048 87.9773 68.2132 89.2111C68.5217 90.4448 68.9013 92.509 69.0199 93.7902C69.1623 95.0477 69.2809 97.0408 69.2809 98.2271C69.2809 99.4134 69.1623 101.406 69.0199 102.688C68.9013 103.945 68.5691 105.891 68.3082 107.006C68.0472 108.121 67.5489 109.711 67.2167 110.565C66.8608 111.419 66.1491 112.843 65.6271 113.744C65.0814 114.646 63.9188 116.164 62.9935 117.09C62.0681 118.015 60.692 119.201 59.909 119.747C59.1261 120.269 57.7499 121.076 56.8246 121.526C55.8993 122.001 54.3571 122.665 53.3843 122.997C52.4115 123.353 50.7981 123.852 49.8253 124.089C48.8526 124.35 46.7172 124.753 45.0801 125.014C43.4429 125.275 41.4737 125.56 40.6907 125.631C39.9077 125.702 30.4409 125.821 0 125.987V61.6885L32.1255 61.5699L29.0648 60.9055C27.3565 60.5259 24.5568 59.7667 22.8485 59.1735C21.1164 58.6041 18.6015 57.5838 17.2728 56.9195C15.9204 56.2552 13.9274 55.1163 12.8122 54.3808C11.6971 53.6453 9.94134 52.2454 8.92111 51.2489C7.87715 50.2761 6.40611 48.6153 5.62314 47.5713C4.84018 46.5274 3.91485 45.0801 3.55895 44.3683C3.20306 43.6565 2.6099 42.3753 2.27773 41.5211C1.92183 40.667 1.39985 38.9112 1.06769 37.6063C0.759243 36.3013 0.379622 34.1897 0.237263 32.9322C0.118632 31.6509 0 29.302 0 27.7124C0 26.099 0.118632 23.8213 0.26099 22.6587C0.403348 21.4961 0.782969 19.5031 1.09141 18.2693C1.39985 17.0355 2.04047 15.2086 2.51499 14.2358C2.98952 13.263 3.81994 11.8157 4.38937 11.0328C4.93508 10.2498 6.02649 9.01601 6.78574 8.2805C7.5687 7.56871 8.8262 6.54847 9.60917 6.00277C10.3921 5.48079 11.6734 4.72154 12.4563 4.34192C13.2393 3.93857 14.6866 3.32169 15.6594 2.98952C16.6322 2.63362 18.4591 2.08792 19.6929 1.77948C20.9266 1.47103 23.062 1.04396 24.4381 0.830422Z" fill="white"/>
<path d="M79.8392 34.4032C79.768 16.0627 79.6493 0.830422 79.5782 0.545706L79.4833 0H128.597V19.2183H163L162.929 28.4242C162.858 37.4165 162.834 37.6537 162.241 39.9789C161.885 41.2838 161.339 43.087 160.983 44.0124C160.651 44.9377 159.939 46.5274 159.394 47.5713C158.872 48.6153 157.899 50.2761 157.211 51.2252C156.546 52.198 155.099 53.9537 153.984 55.1163C152.869 56.2789 151.066 57.916 149.951 58.7464C148.835 59.5769 146.914 60.7869 145.68 61.4275C144.446 62.0919 142.69 62.8985 141.765 63.2307C140.84 63.5866 138.989 64.1323 137.613 64.4408C136.023 64.8204 133.935 65.0814 128.597 65.3661V125.512H124.279C121.882 125.512 118.537 125.394 116.852 125.275C115.168 125.133 112.439 124.753 110.802 124.421C109.165 124.089 106.721 123.448 105.345 122.997C103.969 122.547 101.905 121.692 100.718 121.123C99.532 120.554 97.8237 119.581 96.8747 118.94C95.9493 118.323 94.4309 117.161 93.5055 116.378C92.5802 115.595 91.1566 114.171 90.3499 113.222C89.5195 112.249 88.3332 110.707 87.7163 109.782C87.0757 108.833 85.9843 106.887 85.2725 105.464C84.5844 104.04 83.6354 101.739 83.1846 100.362C82.7338 98.9863 82.1169 96.6374 81.7847 95.1427C81.4526 93.6479 81.0017 91.0854 80.7882 89.4483C80.5272 87.4553 80.3374 83.4218 80.1951 77.1106C80.0764 71.962 79.9341 52.7437 79.8392 34.4032Z" fill="white"/>
<path d="M236.438 93.176C232.649 93.176 229.023 92.8493 225.56 92.196C222.097 91.608 219.027 90.6933 216.348 89.452C213.735 88.2107 211.644 86.61 210.076 84.65C208.573 82.6247 207.822 80.24 207.822 77.496C207.822 77.1693 207.822 76.8753 207.822 76.614C207.887 76.3527 207.953 76.0913 208.018 75.83H221.836C221.836 75.8953 221.803 76.026 221.738 76.222C221.738 76.418 221.738 76.5813 221.738 76.712C221.738 78.3453 222.424 79.652 223.796 80.632C225.233 81.612 227.063 82.3307 229.284 82.788C231.571 83.18 233.988 83.376 236.536 83.376C239.084 83.376 241.501 83.2453 243.788 82.984C246.14 82.6573 248.035 82.102 249.472 81.318C250.909 80.4687 251.628 79.2273 251.628 77.594C251.628 75.8953 250.844 74.6867 249.276 73.968C247.708 73.184 245.421 72.596 242.416 72.204C239.476 71.7467 235.883 71.224 231.636 70.636C228.5 70.1787 225.593 69.5907 222.914 68.872C220.301 68.1533 217.981 67.2387 215.956 66.128C213.996 64.952 212.461 63.482 211.35 61.718C210.305 59.8887 209.782 57.6673 209.782 55.054C209.782 52.2447 210.403 49.86 211.644 47.9C212.951 45.8747 214.78 44.2413 217.132 43C219.549 41.6933 222.457 40.746 225.854 40.158C229.251 39.5047 233.073 39.178 237.32 39.178C241.109 39.178 244.572 39.5047 247.708 40.158C250.909 40.746 253.686 41.6607 256.038 42.902C258.39 44.1433 260.219 45.6787 261.526 47.508C262.898 49.3373 263.584 51.428 263.584 53.78C263.584 54.0413 263.584 54.3027 263.584 54.564C263.584 54.76 263.551 54.9887 263.486 55.25H249.668V54.858C249.668 53.4207 249.08 52.2773 247.904 51.428C246.728 50.5787 245.193 49.958 243.298 49.566C241.469 49.174 239.443 48.978 237.222 48.978C236.438 48.978 235.262 49.0107 233.694 49.076C232.191 49.1413 230.623 49.3373 228.99 49.664C227.422 49.9253 226.083 50.3827 224.972 51.036C223.861 51.624 223.306 52.506 223.306 53.682C223.306 55.1193 224.123 56.1973 225.756 56.916C227.389 57.6347 229.513 58.19 232.126 58.582C234.805 58.9087 237.679 59.3007 240.75 59.758C244.082 60.2153 247.218 60.738 250.158 61.326C253.163 61.914 255.777 62.7633 257.998 63.874C260.219 64.9847 261.951 66.52 263.192 68.48C264.499 70.3747 265.152 72.89 265.152 76.026C265.152 79.2273 264.499 81.9387 263.192 84.16C261.951 86.316 260.089 88.08 257.606 89.452C255.189 90.7587 252.183 91.706 248.59 92.294C245.062 92.882 241.011 93.176 236.438 93.176ZM297.69 93.176C290.503 93.176 285.048 91.4773 281.324 88.08C277.665 84.6827 275.836 79.4233 275.836 72.302V40.354H289.36V69.95C289.36 72.1713 289.654 74.066 290.242 75.634C290.895 77.1367 291.777 78.3453 292.888 79.26C294.064 80.1747 295.436 80.828 297.004 81.22C298.637 81.612 300.434 81.808 302.394 81.808C305.268 81.808 307.947 81.22 310.43 80.044C312.978 78.868 315.036 77.2347 316.604 75.144C318.172 73.0533 318.956 70.6033 318.956 67.794V40.354H332.48V92H321.602L320.622 83.18H319.74C317.91 85.728 315.754 87.7207 313.272 89.158C310.854 90.5953 308.306 91.608 305.628 92.196C302.949 92.8493 300.303 93.176 297.69 93.176ZM346.378 110.326V40.354H357.256L358.432 48.488H359.216C361.633 45.0907 364.573 42.706 368.036 41.334C371.499 39.8967 375.321 39.178 379.502 39.178C384.859 39.178 389.498 40.158 393.418 42.118C397.403 44.078 400.474 47.0507 402.63 51.036C404.851 55.0213 405.962 60.052 405.962 66.128C405.962 72.204 404.884 77.2673 402.728 81.318C400.572 85.3033 397.567 88.276 393.712 90.236C389.923 92.196 385.48 93.176 380.384 93.176C377.64 93.176 375.027 92.882 372.544 92.294C370.061 91.706 367.807 90.8567 365.782 89.746C363.757 88.57 362.025 87.1327 360.588 85.434H359.902V110.326H346.378ZM376.268 81.808C379.6 81.808 382.442 81.22 384.794 80.044C387.146 78.868 388.943 77.1693 390.184 74.948C391.491 72.7267 392.144 70.048 392.144 66.912V65.442C392.144 62.2407 391.491 59.5293 390.184 57.308C388.943 55.0867 387.113 53.4207 384.696 52.31C382.279 51.134 379.404 50.546 376.072 50.546C372.74 50.546 369.833 51.134 367.35 52.31C364.933 53.486 363.071 55.2173 361.764 57.504C360.457 59.7253 359.804 62.4693 359.804 65.736V66.52C359.804 68.9373 360.163 71.126 360.882 73.086C361.666 74.9807 362.777 76.5813 364.214 77.888C365.651 79.1293 367.383 80.1093 369.408 80.828C371.433 81.4813 373.72 81.808 376.268 81.808ZM447.956 93.176C441.292 93.176 435.543 92.2287 430.708 90.334C425.939 88.374 422.248 85.4013 419.634 81.416C417.021 77.4307 415.714 72.3673 415.714 66.226C415.714 60.2153 416.988 55.2173 419.536 51.232C422.084 47.1813 425.743 44.176 430.512 42.216C435.282 40.1907 440.933 39.178 447.466 39.178C454.326 39.178 460.076 40.1907 464.714 42.216C469.418 44.176 472.946 47.0833 475.298 50.938C477.65 54.7273 478.826 59.366 478.826 64.854V69.558H429.924C430.12 72.7593 430.97 75.34 432.472 77.3C434.04 79.1947 436.164 80.5667 438.842 81.416C441.586 82.2653 444.755 82.69 448.348 82.69C449.786 82.69 451.386 82.5267 453.15 82.2C454.98 81.8733 456.711 81.3833 458.344 80.73C460.043 80.0767 461.48 79.2273 462.656 78.182C463.832 77.0713 464.518 75.732 464.714 74.164H478.434C478.434 76.7773 477.748 79.26 476.376 81.612C475.07 83.8987 473.11 85.924 470.496 87.688C467.883 89.3867 464.682 90.726 460.892 91.706C457.103 92.686 452.791 93.176 447.956 93.176ZM429.924 60.542H464.518C464.518 58.6473 464.061 57.014 463.146 55.642C462.297 54.27 461.088 53.1593 459.52 52.31C457.952 51.3953 456.156 50.742 454.13 50.35C452.105 49.8927 449.949 49.664 447.662 49.664C444.33 49.664 441.358 50.0887 438.744 50.938C436.196 51.722 434.171 52.9307 432.668 54.564C431.166 56.1973 430.251 58.19 429.924 60.542ZM490.698 92V40.354H501.576L502.556 49.468H503.34C504.059 47.6387 505.104 45.94 506.476 44.372C507.848 42.804 509.547 41.5627 511.572 40.648C513.663 39.668 516.015 39.178 518.628 39.178C519.804 39.178 520.948 39.276 522.058 39.472C523.234 39.6027 524.28 39.8313 525.194 40.158V52.016H518.432C515.819 52.016 513.598 52.4733 511.768 53.388C510.004 54.2373 508.567 55.4133 507.456 56.916C506.346 58.4187 505.529 60.0847 505.006 61.914C504.484 63.678 504.222 65.5073 504.222 67.402V92H490.698ZM554.837 93.176C551.048 93.176 547.977 92.6533 545.625 91.608C543.273 90.5627 541.542 88.8313 540.431 86.414C539.386 83.9313 538.863 80.5667 538.863 76.32V50.84H528.965V40.354H539.255L541.999 25.262H552.387V40.354H566.401V50.84H552.387V75.34C552.387 77.7573 552.812 79.5867 553.661 80.828C554.576 82.0693 556.568 82.69 559.639 82.69H566.401V91.51C565.486 91.8367 564.31 92.1307 562.873 92.392C561.501 92.6533 560.096 92.8493 558.659 92.98C557.222 93.1107 555.948 93.176 554.837 93.176ZM607.876 93.176C601.212 93.176 595.463 92.2287 590.628 90.334C585.859 88.374 582.168 85.4013 579.554 81.416C576.941 77.4307 575.634 72.3673 575.634 66.226C575.634 60.2153 576.908 55.2173 579.456 51.232C582.004 47.1813 585.663 44.176 590.432 42.216C595.202 40.1907 600.853 39.178 607.386 39.178C614.246 39.178 619.996 40.1907 624.634 42.216C629.338 44.176 632.866 47.0833 635.218 50.938C637.57 54.7273 638.746 59.366 638.746 64.854V69.558H589.844C590.04 72.7593 590.89 75.34 592.392 77.3C593.96 79.1947 596.084 80.5667 598.762 81.416C601.506 82.2653 604.675 82.69 608.268 82.69C609.706 82.69 611.306 82.5267 613.07 82.2C614.9 81.8733 616.631 81.3833 618.264 80.73C619.963 80.0767 621.4 79.2273 622.576 78.182C623.752 77.0713 624.438 75.732 624.634 74.164H638.354C638.354 76.7773 637.668 79.26 636.296 81.612C634.99 83.8987 633.03 85.924 630.416 87.688C627.803 89.3867 624.602 90.726 620.812 91.706C617.023 92.686 612.711 93.176 607.876 93.176ZM589.844 60.542H624.438C624.438 58.6473 623.981 57.014 623.066 55.642C622.217 54.27 621.008 53.1593 619.44 52.31C617.872 51.3953 616.076 50.742 614.05 50.35C612.025 49.8927 609.869 49.664 607.582 49.664C604.25 49.664 601.278 50.0887 598.664 50.938C596.116 51.722 594.091 52.9307 592.588 54.564C591.086 56.1973 590.171 58.19 589.844 60.542ZM670.12 93.176C667.049 93.176 664.175 92.9147 661.496 92.392C658.883 91.9347 656.563 91.1507 654.538 90.04C652.578 88.864 651.043 87.296 649.932 85.336C648.821 83.376 648.266 80.926 648.266 77.986C648.266 73.8047 649.409 70.538 651.696 68.186C653.983 65.834 657.217 64.1353 661.398 63.09C665.579 62.0447 670.447 61.3913 676 61.13C681.619 60.8687 687.695 60.738 694.228 60.738V58.582C694.228 56.3607 693.673 54.5967 692.562 53.29C691.517 51.9833 689.851 51.0687 687.564 50.546C685.343 49.958 682.403 49.664 678.744 49.664C675.804 49.664 673.223 49.86 671.002 50.252C668.781 50.644 667.049 51.232 665.808 52.016C664.567 52.8 663.946 53.78 663.946 54.956V56.132H650.422C650.357 55.8707 650.291 55.6093 650.226 55.348C650.226 55.0867 650.226 54.7927 650.226 54.466C650.226 51.3953 651.337 48.7167 653.558 46.43C655.779 44.1433 659.079 42.3793 663.456 41.138C667.833 39.8313 673.289 39.178 679.822 39.178C685.898 39.178 690.994 39.7333 695.11 40.844C699.291 41.9547 702.427 43.784 704.518 46.332C706.674 48.88 707.752 52.31 707.752 56.622V78.868C707.752 80.1093 707.981 81.0567 708.438 81.71C708.961 82.3633 709.843 82.69 711.084 82.69H716.082V91.51C715.429 91.7713 714.22 92.098 712.456 92.49C710.757 92.9473 708.863 93.176 706.772 93.176C703.897 93.176 701.643 92.8167 700.01 92.098C698.442 91.3793 697.299 90.3993 696.58 89.158C695.927 87.9167 695.469 86.5447 695.208 85.042H694.424C692.595 86.7407 690.406 88.2107 687.858 89.452C685.31 90.6933 682.533 91.608 679.528 92.196C676.523 92.8493 673.387 93.176 670.12 93.176ZM673.452 82.69C675.543 82.69 677.764 82.4613 680.116 82.004C682.533 81.5467 684.82 80.8933 686.976 80.044C689.132 79.1293 690.863 78.0187 692.17 76.712C693.542 75.34 694.228 73.772 694.228 72.008V69.362C686.911 69.362 680.835 69.6233 676 70.146C671.231 70.6033 667.67 71.42 665.318 72.596C662.966 73.772 661.79 75.438 661.79 77.594C661.79 79.0313 662.345 80.1093 663.456 80.828C664.632 81.5467 666.102 82.0367 667.866 82.298C669.695 82.5593 671.557 82.69 673.452 82.69ZM723.065 92V40.354H733.943L734.923 49.174H735.805C737.635 46.626 739.725 44.6333 742.077 43.196C744.429 41.7587 746.912 40.746 749.525 40.158C752.204 39.5047 754.785 39.178 757.267 39.178C762.102 39.178 766.12 39.9947 769.321 41.628C772.523 43.196 774.842 45.7113 776.279 49.174H777.161C779.056 46.626 781.179 44.6333 783.531 43.196C785.949 41.7587 788.464 40.746 791.077 40.158C793.756 39.5047 796.369 39.178 798.917 39.178C803.491 39.178 807.313 39.9293 810.383 41.432C813.519 42.9347 815.871 45.2213 817.439 48.292C819.007 51.3627 819.791 55.2827 819.791 60.052V92H806.267V62.404C806.267 60.1827 805.973 58.3207 805.385 56.818C804.797 55.25 803.948 54.0087 802.837 53.094C801.792 52.1793 800.518 51.526 799.015 51.134C797.513 50.742 795.847 50.546 794.017 50.546C791.273 50.546 788.693 51.134 786.275 52.31C783.858 53.486 781.898 55.1193 780.395 57.21C778.893 59.3007 778.141 61.7507 778.141 64.56V92H764.715V62.404C764.715 60.1827 764.421 58.3207 763.833 56.818C763.245 55.25 762.396 54.0087 761.285 53.094C760.24 52.1793 758.966 51.526 757.463 51.134C755.961 50.742 754.262 50.546 752.367 50.546C749.623 50.546 747.043 51.134 744.625 52.31C742.208 53.486 740.248 55.1193 738.745 57.21C737.308 59.3007 736.589 61.7507 736.589 64.56V92H723.065Z" fill="white"/>
</svg>
