<svg width="23" height="23" viewBox="0 0 23 23" fill="none" xmlns="http://www.w3.org/2000/svg">
<path d="M0.406259 11.0285L5.70595 13.3002L7.75724 20.8773C7.88852 21.3623 8.40518 21.5417 8.74799 21.2197L11.7022 18.4538C12.0118 18.1638 12.4529 18.1496 12.7764 18.4193L18.1047 22.8624C18.4715 23.1685 18.9913 22.9378 19.0832 22.4286L22.9865 0.864606C23.0869 0.30843 22.6112 -0.155497 22.1501 0.0493791L0.400126 9.68643C-0.136684 9.92401 -0.132084 10.7969 0.406259 11.0285ZM7.42663 12.091L17.7842 4.76421C17.9702 4.63296 18.1618 4.92204 18.0018 5.09236L9.45398 14.2184C9.15345 14.5395 8.95966 14.9695 8.90475 15.4362L8.61371 17.9146C8.57494 18.2454 8.17044 18.2781 8.09078 17.9579L6.97094 13.4385C6.8428 12.9231 7.02964 12.3724 7.42663 12.091Z" fill="white"/>
</svg>
