<svg width="26" height="26" viewBox="0 0 26 26" fill="none" xmlns="http://www.w3.org/2000/svg">
<path d="M25.5 13C25.5 19.9281 19.9281 25.5 13 25.5C6.07193 25.5 0.5 19.9281 0.5 13C0.5 6.07193 6.07193 0.5 13 0.5C19.9281 0.5 25.5 6.07193 25.5 13Z" fill="#2775CA" stroke="#E0E0E0"/>
<path d="M16.5747 15.0594C16.5747 13.1636 15.4372 12.5136 13.1622 12.2428C11.5372 12.0261 11.2122 11.5928 11.2122 10.8344C11.2122 10.076 11.7539 9.58859 12.8372 9.58859C13.8122 9.58859 14.3539 9.91359 14.6247 10.7261C14.6789 10.8886 14.8414 10.9969 15.0039 10.9969H15.8705C16.0872 10.9969 16.2497 10.8344 16.2497 10.6178V10.5636C16.033 9.37188 15.058 8.45109 13.8122 8.3428V7.0428C13.8122 6.82608 13.6497 6.66359 13.3789 6.60938H12.5664C12.3497 6.60938 12.1872 6.77187 12.133 7.0428V8.28859C10.508 8.5053 9.47891 9.58859 9.47891 10.9428C9.47891 12.7303 10.5622 13.4344 12.8372 13.7053C14.3539 13.9761 14.8414 14.3011 14.8414 15.1678C14.8414 16.0345 14.083 16.6303 13.0539 16.6303C11.6455 16.6303 11.158 16.0344 10.9955 15.2219C10.9414 15.0053 10.7789 14.8969 10.6164 14.8969H9.69549C9.47891 14.8969 9.31641 15.0594 9.31641 15.2761V15.3303C9.53299 16.6844 10.3997 17.6594 12.1872 17.9303V19.2303C12.1872 19.4469 12.3497 19.6094 12.6205 19.6636H13.433C13.6497 19.6636 13.8122 19.5011 13.8664 19.2303V17.9303C15.4914 17.6594 16.5747 16.5219 16.5747 15.0594Z" fill="white"/>
<path d="M10.2386 20.7451C6.01356 19.2285 3.84685 14.516 5.41777 10.3451C6.23027 8.0701 8.01777 6.33681 10.2386 5.52431C10.4553 5.41602 10.5636 5.25352 10.5636 4.9826V4.22431C10.5636 4.0076 10.4553 3.8451 10.2386 3.79102C10.1843 3.79102 10.0761 3.79102 10.0218 3.8451C4.87606 5.4701 2.05935 10.941 3.68435 16.0868C4.65935 19.1201 6.98856 21.4493 10.0218 22.4243C10.2386 22.5326 10.4553 22.4243 10.5093 22.2076C10.5636 22.1535 10.5636 22.0993 10.5636 21.991V21.2326C10.5636 21.0701 10.4011 20.8535 10.2386 20.7451ZM15.9803 3.8451C15.7636 3.73681 15.5468 3.8451 15.4928 4.06181C15.4386 4.11602 15.4386 4.1701 15.4386 4.27852V5.03681C15.4386 5.25352 15.6011 5.4701 15.7636 5.57852C19.9886 7.0951 22.1553 11.8076 20.5843 15.9785C19.7718 18.2535 17.9843 19.9868 15.7636 20.7993C15.5468 20.9076 15.4386 21.0701 15.4386 21.341V22.0993C15.4386 22.316 15.5468 22.4785 15.7636 22.5326C15.8178 22.5326 15.9261 22.5326 15.9803 22.4785C21.1261 20.8535 23.9428 15.3826 22.3178 10.2368C21.3428 7.14931 18.9593 4.8201 15.9803 3.8451Z" fill="white"/>
</svg>
