<svg width="12" height="10" viewBox="0 0 12 10" fill="none" xmlns="http://www.w3.org/2000/svg">
<path d="M11.3742 4.24436V3.79156C11.3742 2.96355 10.7927 2.26753 10.0082 2.0681L10.0068 1.32152C10.0068 0.592926 9.39993 0 8.65386 0H8.5823L2.25047 1.91906C2.10626 1.9272 1.96944 1.95978 1.84095 2.00879H1.82444C0.818568 2.00879 0 2.80852 0 3.79156V8.21723C0 9.20011 0.818411 10 1.82444 10H9.5498C10.5557 10 11.3742 9.20026 11.3742 8.21723V7.6286C11.7396 7.49047 12 7.14446 12 6.73914V5.13352C11.9998 4.7285 11.7396 4.38249 11.3742 4.24436ZM11.0562 6.73898C11.0562 6.75711 11.0416 6.7714 11.0231 6.7714H8.46891C8.45036 6.7714 8.43589 6.75711 8.43589 6.73898V5.13352C8.43589 5.11585 8.45067 5.10141 8.46891 5.10141H11.0231C11.0413 5.10141 11.0562 5.11585 11.0562 5.13352V6.73898ZM8.7122 0.926034C8.91052 0.953691 9.06322 1.12055 9.06322 1.32229L9.06448 2.00894H5.13929L8.7122 0.926034ZM9.5498 9.07796H1.8246C1.33817 9.07796 0.943751 8.69246 0.943751 8.21707V3.79156C0.943751 3.31602 1.33817 2.93067 1.8246 2.93067H9.5498C10.0364 2.93067 10.4306 3.31602 10.4306 3.79156V4.17952H8.46891C7.93044 4.17952 7.49229 4.60743 7.49229 5.13352V6.73898C7.49229 7.26523 7.93044 7.69329 8.46891 7.69329H10.4306V8.21723C10.4306 8.69246 10.0364 9.07796 9.5498 9.07796Z" fill="#999999"/>
</svg>
